<svg width="115" height="116" viewBox="0 0 115 116" fill="none" xmlns="http://www.w3.org/2000/svg">
<mask id="mask0_1_30" style="mask-type:alpha" maskUnits="userSpaceOnUse" x="0" y="0" width="115" height="116">
<path d="M114.597 57.9055C114.597 89.7131 88.9431 115.498 57.2985 115.498C25.6535 115.498 0 89.7135 0 57.9055C0 26.0984 25.6535 0.313141 57.2985 0.313141C88.9435 0.313141 114.597 26.0984 114.597 57.9055Z" fill="white"/>
</mask>
<g mask="url(#mask0_1_30)">
<path d="M115.175 57.9055C115.175 89.8736 89.3918 115.788 57.5875 115.788C25.7829 115.788 0 89.8739 0 57.9055C0 25.9379 25.7829 0.0226135 57.5875 0.0226135C89.3922 0.0226135 115.175 25.9379 115.175 57.9055Z" fill="white"/>
<path d="M57.1 20.0926C59.1549 21.277 61.3346 22.8013 62.9939 24.4166L62.342 25.0716C59.0678 24.7235 55.6193 25.158 52.5154 25.2059C52.1692 24.8566 51.4718 24.3315 52.1213 23.8927L57.1 20.0926ZM114.995 60.7653C115.039 62.2433 115.178 63.5125 114.601 65.025C108.619 66.7263 104.69 60.3929 98.8862 61.3481L99.5423 64.631C104.912 64.8076 108.266 69.9566 113.813 69.7353C113.025 71.3094 114.165 75.4564 110.673 73.7987C107.049 72.9279 104.428 69.7353 100.457 69.7353C99.9776 70.6151 100.281 71.8333 100.197 72.8741C104.387 73.5315 107.4 77.0726 111.589 77.7264C111.195 79.1659 110.804 80.7777 109.624 81.6556C106.217 80.8264 103.555 77.766 99.9273 77.8536L99.2814 80.868C102.729 80.9567 104.957 84.0068 108.055 84.9224C108.14 86.194 107.004 87.3301 106.349 88.4651C103.598 87.639 101.501 85.276 98.3579 85.4503C98.3143 84.2663 99.0172 82.9217 98.7519 81.6556C95.2222 82.7055 92.8553 79.4257 90.2392 77.4584C90.1639 71.0201 83.3862 66.7966 83.0283 60.7653C82.9596 59.5629 83.1429 58.2791 83.6907 56.8997C85.9183 51.7491 85.2186 45.0621 82.7759 40.26C82.0338 38.9963 80.7187 37.9987 79.493 37.2558C81.2862 41.0559 83.4714 45.546 82.3807 50.2169C82.2543 53.824 80.1261 57.2882 80.1017 60.7653C80.0935 62.0051 80.358 63.2449 81.0711 64.4968C83.9109 69.6112 89.0199 74.4526 87.0988 80.8668C86.5706 82.8369 84.9976 84.3604 84.6051 86.3655C87.9273 89.117 91.0685 92.2174 95.4765 92.392C97.0471 91.3889 96.1747 86.9404 99.4058 88.9922L104.123 91.352C103.78 92.6149 102.722 93.7468 101.765 94.6164C99.9748 93.7452 98.2288 92.7009 95.9969 92.786C95.3388 93.4842 94.7725 94.2679 94.8227 95.2699C96.3933 95.5285 97.834 96.1914 99.146 97.1097C98.5369 98.4217 97.3497 99.2439 96.2583 100.249L92.5986 98.9401C91.9876 99.8145 90.7184 100.733 91.1638 101.693C91.9896 102.046 92.9055 102.524 93.5135 103.137C91.8981 104.883 89.8507 106.006 87.8806 107.191C86.1836 101.645 80.5923 97.7561 81.0723 91.3418L80.8125 91.0824C79.4981 92.56 79.9373 94.923 80.0221 96.8405C81.595 100.858 85.3469 103.961 85.9159 108.367C85.259 109.501 83.7779 109.727 82.6417 110.207C82.7736 102.263 70.7248 96.2388 78.4515 88.2041C81.0283 84.2698 85.3457 80.5152 83.8159 75.0985C82.2453 69.8687 76.6901 66.6282 76.7392 60.7653L76.7478 60.3081C78.0131 54.1941 81.8568 47.6884 78.7125 41.1842C77.8361 38.5681 75.8782 35.5953 73.215 34.5019C77.1854 39.0465 78.7595 46.4616 76.488 52.5768C75.3432 55.0092 73.7671 57.9071 73.609 60.7665H73.5996C73.5152 62.2598 73.8201 63.7448 74.7836 65.153C77.7984 70.0445 83.0345 75.4176 80.0225 81.7922C76.6175 86.8981 70.6801 92.0918 73.9959 98.8169C76.397 102.833 80.1112 106.841 79.1092 111.778L75.18 113.087C77.7996 103.878 64.9624 98.4664 70.3363 89.254C73.6541 84.3208 79.588 79.6922 76.229 73.1449C74.2208 69.0881 70.0714 66.6871 70.2025 61.6173L70.3453 60.7661C71.6973 53.576 77.163 46.77 73.3413 39.0866C72.337 36.8178 70.33 34.5047 68.1025 33.1939L67.9678 33.3285C72.4234 37.6506 73.7789 44.7618 71.3767 50.4783C70.2559 53.8322 67.796 57.1732 67.296 60.7673C67.0581 62.4619 67.2587 64.2181 68.2379 66.0682C71.0753 70.5614 76.0512 75.3277 72.9461 81.1368C69.6762 85.935 64.2172 90.6036 66.3976 96.8432C68.7995 102.302 73.8146 107.503 71.1067 114.272L67.0523 115.187C70.2818 108.591 65.4393 102.045 62.6026 96.3236C59.1518 88.1154 70.0169 84.185 70.1911 76.6805C70.1499 71.8368 65.0005 69.0865 63.9122 64.6337C61.6835 62.7535 59.3735 65.3814 56.7091 64.8935C54.7421 65.2887 51.721 62.186 50.5468 65.5493C49.1485 70.4801 42.7782 74.1052 45.578 79.9536C48.2419 85.1508 54.6531 88.9514 52.5114 95.6772C50.5939 101.96 44.2597 107.941 48.1882 115.187C46.5744 114.665 43.5607 115.665 43.6043 113.087C41.1169 104.312 51.7242 99.2003 48.448 90.4301C46.9233 85.0582 39.9765 82.0905 41.5059 75.6295C42.6365 70.311 48.6046 66.5929 47.7675 60.7669C47.6996 60.2791 47.5795 59.7799 47.408 59.2595C45.1804 52.9728 40.6358 46.6845 43.3445 39.3471C44.0882 37.2514 45.5736 35.4619 46.8789 33.5887C42.5565 35.9018 40.376 40.7929 40.4655 45.7689C40.2771 51.18 44.2742 55.8153 44.8429 60.7669C45.0666 62.7653 44.7393 64.8115 43.3445 66.9822C40.509 70.8298 36.8007 74.8866 38.5008 79.9528C40.1174 85.0629 46.4908 88.1586 46.098 94.0984C46.0548 101.125 37.8906 105.499 40.2045 113.357L36.141 112.039C34.5276 105.056 41.9482 101.484 42.0333 95.023C43.0835 87.5935 33.6077 84.8369 34.1764 77.5945C34.1356 72.0919 38.9792 68.6069 41.1185 63.9783C41.4855 62.852 41.6075 61.7877 41.5584 60.7673C41.2963 55.6497 36.685 51.6486 37.4502 45.8949C37.7077 41.6603 39.1484 37.9484 41.8999 34.7637C38.1037 36.2888 36.5354 40.6587 35.4868 44.3266C33.667 50.2079 38.0111 55.4982 38.4467 60.7677C38.6398 63.0945 38.0711 65.4081 35.8816 67.7734C32.7365 71.4797 29.547 76.1562 31.8177 81.1376C34.2223 86.6339 41.7766 90.9121 38.5 97.7675C36.7124 102.09 32.4319 105.363 32.6077 110.469C31.4736 109.988 30.297 109.51 29.3331 108.639C29.3331 102.135 38.5848 98.0728 34.1768 91.2186C33.7863 92.571 33.7023 94.4088 33.3966 95.9367C31.8668 99.9114 28.5937 103.093 27.3689 107.202C25.3207 106.412 23.179 104.751 21.4754 103.005L23.8352 101.561C23.5731 100.686 22.8757 99.9444 22.2658 99.2023C20.7333 98.9868 19.727 99.9923 18.4637 100.386C17.3723 99.424 16.3189 98.5504 15.4489 97.3719C16.2322 95.1408 22.3529 96.9857 19.2521 93.3174C17.1588 92.0086 15.0576 93.8782 13.2244 94.7511L10.7394 91.6122C12.8787 90.3038 15.0125 88.4659 17.6733 88.993C18.3291 90.1739 18.3746 91.9105 19.6379 92.527C24.1355 92.4395 27.3222 89.0377 30.7699 86.3737C28.3669 82.7981 26.4109 77.8618 28.5455 73.5377C30.2558 69.2047 34.7121 65.5552 34.9142 60.7649C34.9597 59.6747 34.7898 58.5276 34.313 57.2929C31.9567 51.2236 31.1251 43.0209 35.6226 37.649C33.1772 38.306 31.7353 41.3538 30.9045 43.6681C28.2009 49.5945 31.6203 55.0849 31.7385 60.7645C31.7546 61.7861 31.6717 62.81 31.4241 63.8414C29.1094 68.5124 25.3591 72.6108 24.75 77.9858C22.0861 79.6851 19.8989 82.6568 16.1031 81.6541C15.9697 82.6572 16.2754 84.1862 16.6235 85.3223C13.6134 85.196 11.5608 87.4145 9.02637 88.4624C7.67633 88.0291 7.32508 86.2839 6.80233 85.0625C9.76889 84.0606 11.9089 81.0866 15.315 81.1337C15.7099 80.0368 15.0937 79.0317 14.9198 77.985C10.6829 76.1044 3.96685 87.2815 3.40211 77.591C7.6359 77.3288 10.3415 73.3988 14.5345 73.0071L14.6597 69.8683C9.90115 69.3875 6.84001 74.2795 2.08347 73.7971L1.03444 69.6085C6.53664 69.9523 9.81481 65.0215 15.0549 64.7562C15.7511 63.8406 15.8351 62.487 15.9693 61.2221C10.2496 60.4769 6.32472 66.8154 0.254237 64.8904C0.254237 64.8904 0.0450594 62.2523 -0.0683599 60.7649H-0.0601183C-0.101326 60.1833 -0.140571 59.7779 -0.140571 59.7779C5.27255 61.8783 10.0287 57.9903 14.6597 55.9833C15.8374 55.6309 17.6741 56.2419 18.2023 54.9335C18.1564 53.9292 19.988 52.7549 18.4633 52.054C11.6931 51.1353 7.19557 59.3011 0.253452 55.5881L-0.267334 54.5383C1.1769 34.8076 12.3045 15.732 30.7699 6.34492C38.2485 2.07109 47.5394 -0.10742 56.9093 -0.184733C68.2171 -0.27853 79.643 2.68764 88.1427 8.70435C96.3968 13.7674 104.292 22.1114 108.577 30.5817C112.675 38.003 114.561 46.3305 115.124 55.196C107.963 60.6072 103.158 50.098 95.8658 52.45C96.2587 53.5873 96.4761 54.7639 97.3097 55.7243C103.773 55.6787 108.224 62.4462 114.989 59.7791L114.995 60.7653ZM32.7322 36.4654C28.1911 33.4957 22.4338 36.2919 18.2015 37.9092C17.8087 33.9344 16.1945 30.3133 12.8289 27.694C12.5023 27.5315 12.051 27.1897 11.6444 27.1646C11.4011 27.1493 11.1696 27.2474 10.9898 27.5586C12.5153 36.9434 6.41459 43.4919 2.09131 50.611C3.53084 51.7875 5.84357 51.6117 7.58959 51.266C12.1727 49.4332 16.5383 46.2434 21.9954 47.3367C23.6092 44.5864 26.3206 41.9224 28.5439 39.7396C29.9022 38.5642 31.7683 37.8178 32.7322 36.4654ZM46.618 42.3592C46.5308 42.9244 46.6615 43.9318 47.5328 43.5425C48.8883 41.6654 51.2882 43.1504 52.7716 43.2827V42.7544C51.9577 41.4762 50.2831 40.8342 48.5826 40.8981C48.1901 40.9119 47.7914 40.9692 47.4076 41.0583C46.8385 41.1846 46.4425 41.7054 46.618 42.3592ZM67.9659 36.735C66.7469 34.0274 63.9527 32.9317 61.417 32.2771C60.1741 32.124 58.8841 32.0204 57.6047 32.0083C57.3649 32.0059 57.1255 32.0028 56.8869 32.0083C53.3081 32.0805 49.8887 32.9992 47.7996 35.945C47.4998 36.7766 46.1816 37.9445 47.4056 38.6898C50.1563 38.514 53.2952 38.169 55.1287 40.5296C55.1287 42.6273 56.4831 45.418 54.2139 46.4223C52.3337 44.6814 50.1069 47.1633 48.061 45.7661C47.0991 45.1979 46.4904 45.8611 46.0964 46.6904C45.5277 52.1027 48.3616 58.0758 53.4251 61.0871C55.4772 61.8273 58.2358 62.5314 60.3774 61.4812C65.5287 59.0825 67.6625 53.585 68.6217 48.52C68.493 47.5561 68.5389 45.6778 67.1865 45.6323C65.6594 46.5981 63.4323 46.0275 61.8138 45.6323C60.857 45.9412 60.813 47.341 59.724 47.6063L59.0603 47.0769C58.4921 44.6794 58.1416 41.2729 60.3703 39.614C62.8608 38.6097 65.7858 38.171 68.3615 38.959C68.8422 38.1301 68.1001 37.4775 67.9659 36.735ZM65.3376 41.0398C65.1646 41.0441 64.9962 41.0528 64.8259 41.0583C63.911 41.6685 61.2451 41.2298 62.2074 43.2827C63.8675 41.9695 66.1814 42.8898 67.8403 43.5425C68.4537 43.2379 68.3207 42.6265 68.3611 42.0994C67.8285 41.1085 66.5558 41.0155 65.3376 41.0398ZM84.3457 22.5811C81.1143 22.4096 78.4083 24.244 75.439 25.074C75.1804 22.5474 77.0999 19.8791 77.5378 17.3427C72.737 17.6515 68.9345 20.5412 64.9628 22.8496C64.0437 20.6287 63.1218 18.3964 62.209 16.1673L67.4478 11.189L67.5821 10.5332L60.5057 10.1392C59.2868 8.00343 58.8064 5.43089 57.3657 3.46627C56.1868 5.69266 55.3948 8.04895 54.217 10.2734L47.149 10.6686V11.189L52.5134 16.0326C51.8576 18.5224 51.2481 21.2276 49.6344 23.1094C46.4912 21.2268 43.3928 19.1778 39.9466 17.8705C39.1174 17.6028 37.9353 17.1676 37.1932 17.7363C38.283 20.1381 39.8093 22.7216 39.5526 25.3432C38.1111 25.0779 36.9781 24.1537 35.6238 23.7652C34.0041 23.3233 32.0823 22.4599 30.5109 22.985C33.1309 26.6501 35.2694 30.4859 36.0091 34.8967C44.7008 30.7018 54.8371 28.3945 65.3588 30.1873C70.2908 30.9722 74.826 32.9812 79.236 34.6361C79.4083 30.0111 82.3332 26.2945 84.3457 22.5811ZM99.2715 47.7311C103.721 48.9089 108.185 53.7569 112.897 50.6114C108.793 43.8019 102.686 37.5136 104.384 28.6088C104.562 28.0009 104.169 27.3855 103.604 27.2992C100.942 28.3871 98.8803 31.0099 97.8269 33.5879C97.3937 35.1126 97.137 36.7334 96.5267 38.1706C93.3376 36.5109 89.9347 34.903 86.0494 35.2915C84.6483 35.4662 82.6397 35.558 82.3811 36.9964C86.7903 39.3526 90.4162 43.285 93.1183 47.4725C94.9997 47.1656 97.3069 47.4278 99.2715 47.7311ZM52.6457 53.8852L52.7712 54.6744C54.4772 55.811 55.0019 57.7372 57.3637 57.5621C59.4583 57.6865 61.0297 55.7243 62.0732 54.1537C59.2389 53.7624 55.79 54.3679 52.6457 53.8852ZM55.0043 50.3512C55.0895 50.7008 54.7881 51.2248 55.2641 51.4014C56.6613 51.098 59.1922 52.1447 59.9724 50.4858C59.4277 49.8755 58.5384 49.5984 57.6051 49.5984C56.6722 49.5984 55.7041 49.8704 55.0043 50.3512Z" fill="#007042"/>
<path opacity="0.99" d="M52.6489 48.8363H62.2216V52.7691H52.6489V48.8363Z" fill="white"/>
<path d="M54.4173 50.9391C55.6543 51.2319 55.9604 51.6706 56.938 51.7931C57.9772 51.7746 57.8273 51.5635 59.6401 50.9379C59.759 50.8959 59.9226 50.6334 59.7197 50.4321C58.5942 49.3147 57.8163 50.113 57.1107 50.1342C56.1747 50.1444 55.2968 49.3328 54.3824 50.3877C54.2266 50.602 54.1453 50.8123 54.4173 50.9391Z" fill="#007042"/>
<path d="M99.6421 115.468V109.866H97.6414V108.726H102.999V109.866H101.003V115.468H99.6421Z" fill="#007042"/>
<path d="M103.864 115.468V108.725H105.901L107.125 113.324L108.334 108.725H110.376V115.468H109.111V110.16L107.773 115.468H106.462L105.129 110.16V115.468H103.864Z" fill="#007042"/>
</g>
</svg>
